# AST/ASF file generated using VICON BodyLanguage
# -----------------------------------------------
:version 1.10
:name VICON
:units
  mass 1.0
  length 0.45
  angle deg
:documentation
   .ast/.asf automatically generated from VICON data using
   VICON BodyBuilder and BodyLanguage model FoxedUp or BRILLIANT.MOD
:root
   order TX TY TZ RX RY RZ
   axis XYZ
   position 0 0 0  
   orientation 0 0 0 
:bonedata
  begin
     id 1 
     name lhipjoint
     direction 0.734343 -0.627749 0.258209 
     length 2.5437 
     axis 0 0 0  XYZ
  end
  begin
     id 2 
     name lfemur
     direction 0.34202 -0.939693 0  
     length 6.7391  
     axis 0 0 20  XYZ
    dof rx ry rz
    limits (-160.0 20.0)
           (-70.0 70.0)
           (-60.0 70.0)
  end
  begin
     id 3 
     name ltibia
     direction 0.34202 -0.939693 0   
     length 7.21536   
     axis 0 0 20   XYZ
    dof rx
    limits (-10.0 170.0)
  end
  begin
     id 4 
     name lfoot
     direction 0.0489572 -0.134509 0.989702   
     length 1.61313   
     axis -90 7.62852e-016 20   XYZ
    dof rx rz
    limits (-45.0 90.0)
           (-70.0 20.0)
  end
  begin
     id 5 
     name ltoes
     direction 1.53451e-011 -4.21692e-011 1   
     length 0.823104   
     axis -90 7.62852e-016 20   XYZ
    dof rx
    limits (-90.0 20.0)
  end
  begin
     id 6 
     name rhipjoint
     direction -0.746398 -0.615468 0.253157   
     length 2.59446  
     axis 0 0 0  XYZ 
  end
  begin
     id 7 
     name rfemur
     direction -0.34202 -0.939693 0   
     length 6.7075   
     axis 0 0 -20   XYZ
    dof rx ry rz
    limits (-160.0 20.0)
           (-70.0 70.0)
           (-70.0 60.0)
  end
  begin
     id 8 
     name rtibia
     direction -0.34202 -0.939693 0   
     length 7.27262   
     axis 0 0 -20   XYZ
    dof rx
    limits (-10.0 170.0)
 end
 begin
     id 9 
     name rfoot
     direction -0.0455203 -0.125066 0.991104   
     length 1.91095  
     axis -90 -7.62852e-016 -20   XYZ
    dof rx rz
    limits (-45.0 90.0)
           (-20.0 70.0)
  end
  begin
     id 10 
     name rtoes
     direction -1.53601e-011 -4.21913e-011 1   
     length 0.969037   
     axis -90 -7.62852e-016 -20   XYZ
    dof rx
    limits (-90.0 20.0)
  end
  begin
     id 11 
     name lowerback
     direction 0.0181546 0.999122 -0.0377542   
     length 1.99916   
     axis 0 0 0   XYZ
    dof rx ry rz
    limits (-20.0 45.0)
           (-30.0 30.0)
           (-30.0 30.0)
  end
  begin
     id 12 
     name upperback
     direction 0.0203486 0.99589 0.0882534   
     length 1.951   
     axis 0 0 0   XYZ
    dof rx ry rz
    limits (-20.0 45.0)
           (-30.0 30.0)
           (-30.0 30.0)
  end
  begin
     id 13 
     name thorax
     direction 0.0131685 0.994241 0.106355   
     length 1.97461   
     axis 0 0 0   XYZ
    dof rx ry rz
    limits (-20.0 45.0)
           (-30.0 30.0)
           (-30.0 30.0)
  end
  begin
     id 14 
     name lowerneck
     direction -0.0281395 0.999325 0.023617   
     length 1.7959   
     axis 0 0 0   XYZ
    dof rx ry rz
    limits (-20.0 45.0)
           (-30.0 30.0)
           (-30.0 30.0)
  end
  begin
     id 15 
     name upperneck
     direction 0.0288721 0.991984 -0.123019   
     length 1.79917   
     axis 0 0 0   XYZ
    dof rx ry rz
    limits (-20.0 45.0)
           (-30.0 30.0)
           (-30.0 30.0)
  end
  begin
     id 16
     name head
     direction 0.0133797 0.998944 -0.0439492  
     length 1.80902  
     axis 0 0 0   XYZ
    dof rx ry rz
    limits (-20.0 45.0)
           (-30.0 30.0)
           (-30.0 30.0)
  end
  begin
     id 17 
     name lclavicle
     direction 0.919195 0.377107 0.113449  
     length 3.17815  
     axis 0 0 0   XYZ
    dof ry rz
    limits (-20.0 10.0)
           (0.0 20.0)
  end
  begin
     id 18 
     name lhumerus
     direction 1 -4.48959e-011 2.13129e-027   
     length 4.84137   
     axis 180 -30 -90   XYZ
    dof rx ry rz
    limits (-60.0 90.0)
           (-90.0 90.0)
           (-90.0 90.0)
  end
  begin
     id 19
     name lradius
     direction 1 -4.48957e-011 -6.30627e-028   
     length 3.2452   
     axis 180 -30 -90   XYZ
    dof rx
    limits (-10.0 170.0)
  end
  begin
     id 20
     name lwrist
     direction 1 -4.4901e-011 9.13299e-027   
     length 1.6226   
     axis -6.84618e-015 90 90   XYZ
    dof ry
    limits (-180.0 0.0)
 end
  begin
     id 21 
     name lhand
     direction 1 -4.48816e-011 1.82293e-026   
     length 0.521221   
     axis -1.16502e-014 90 90   XYZ
    dof rx rz
    limits (-90.0 90.0)
           (-45.0 45.0)
  end
  begin
     id 22 
     name lfingers
     direction 1 -4.49108e-011 3.65687e-026   
     length 0.420221   
     axis -2.33008e-014 90 90   XYZ
    dof rx
    limits (0.0 90.0)
  end
  begin
     id 23
     name lthumb
     direction 0.707107 -6.34943e-011 0.707107   
     length 0.603356   
     axis -90 45 5.69224e-014   XYZ
    dof rx rz
    limits (-45.0 45.0)
           (-45.0 45.0)
  end
  begin
     id 24 
     name rclavicle
     direction -0.90847 0.38596 0.160368   
     length 3.12973  
     axis 0 0 0   XYZ 
    dof ry rz
    limits (-10.0 20.0)
           (-20.0 0.0)
  end
  begin
     id 25 
     name rhumerus
     direction -1 -4.48974e-011 4.47268e-028  
     length 4.72284   
     axis 180 30 90   XYZ
    dof rx ry rz
    limits (-90.0 60.0)
           (-90.0 90.0)
           (-90.0 90.0)
  end
  begin
     id 26 
     name rradius
     direction -1 -4.48969e-011 3.43203e-027   
     length 3.23459   
     axis 180 30 90   XYZ
    dof rx
    limits (-10.0 170.0)
  end
  begin
     id 27 
     name rwrist
     direction -1 -4.48969e-011 9.12911e-027   
     length 1.6173   
     axis -6.84618e-015 -90 -90   XYZ
    dof ry
    limits (-180.0 0.0)
  end
  begin
     id 28
     name rhand
     direction -1 -4.49194e-011 1.83006e-026   
     length 0.307416   
     axis -1.16502e-014 -90 -90   XYZ
    dof rx rz
    limits (-90.0 90.0)
           (-45.0 45.0)
  end
  begin
     id 29
     name rfingers
     direction -1 -4.48423e-011 3.63103e-026   
     length 0.247847   
     axis -2.33008e-014 -90 -90   XYZ
    dof rx
    limits (0.0 90.0)
  end
  begin
     id 30
     name rthumb
     direction -0.707107 -6.34802e-011 0.707107   
     length 0.35586   
     axis -90 -45 -5.69224e-014   XYZ
    dof rx rz
    limits (-45.0 45.0)
           (-45.0 45.0)
  end
:hierarchy
  begin
    root lhipjoint rhipjoint lowerback
    lhipjoint lfemur
    lfemur ltibia
    ltibia lfoot
    lfoot ltoes
    rhipjoint rfemur
    rfemur rtibia
    rtibia rfoot
    rfoot rtoes
    lowerback upperback
    upperback thorax
    thorax lowerneck lclavicle rclavicle
    lowerneck upperneck
    upperneck head
    lclavicle lhumerus
    lhumerus lradius
    lradius lwrist
    lwrist lhand lthumb
    lhand lfingers
    rclavicle rhumerus
    rhumerus rradius
    rradius rwrist
    rwrist rhand rthumb
    rhand rfingers
  end

#!OML:ASF H:\Terrain\Patient Classification 1\Animal1\Tuesday\Animal1.ASF
:FULLY-SPECIFIED
:DEGREES
167
root 20.6286 13.493 -12.8037 28.6168 -23.0294 2.91493
lowerback 36.828 -2.13843 -1.81266
upperback -4.85396 -3.4843 0.893991
thorax -25.2769 -0.903873 3.9555
lowerneck -19.0923 4.17151 -2.17329
upperneck -12.004 5.86312 2.4514
head -0.865583 2.96786 1.42178
rclavicle 1.8487e-014 2.8625e-014
rhumerus -34.42 9.70466 6.34802
rradius 21.6221
rwrist -33.396
rhand -17.3034 9.04556
rfingers 7.12502
rthumb 8.94262 -20.7449
lclavicle 1.8487e-014 2.8625e-014
lhumerus -20.9134 3.24973 -3.84274
lradius 23.1602
lwrist -15.0415
lhand 6.16207 46.9406
lfingers 7.12502
lthumb 31.4777 74.2499
rfemur -111.844 -16.6303 27.0166
rtibia 88.7644
rfoot 42.8552 10.2433
rtoes 15.8686
lfemur -76.2426 -13.9154 -21.2816
ltibia 80.6195
lfoot -28.4167 23.5593
ltoes 5.91541
168
root 20.6403 13.4901 -12.8125 28.5973 -23.1798 3.06071
lowerback 36.8257 -2.03334 -1.85471
upperback -4.77528 -3.37136 0.856203
thorax -25.1689 -0.86667 3.86755
lowerneck -18.5922 4.18135 -2.06097
upperneck -13.2471 5.83845 2.00682
head -1.33673 2.9376 1.22588
rclavicle 5.81445e-014 -3.93594e-014
rhumerus -34.5666 8.83014 7.01318
rradius 21.5887
rwrist -32.5002
rhand -16.6665 8.4872
rfingers 7.12502
rthumb 9.55714 -21.276
lclavicle 5.81445e-014 -3.93594e-014
lhumerus -20.939 2.84492 -3.71688
lradius 23.181
lwrist -14.8111
lhand 6.20207 47.0101
lfingers 7.12502
lthumb 31.5159 74.3119
rfemur -111.957 -16.5886 26.8653
rtibia 88.7307
rfoot 43.0077 9.95747
rtoes 16.105
lfemur -76.3183 -13.9464 -21.4744
ltibia 80.5563
lfoot -28.0706 23.9
ltoes 5.12933
169
root 20.6487 13.4743 -12.824 28.8123 -23.3316 3.31047
lowerback 36.682 -1.9725 -2.00341
upperback -4.75071 -3.37314 0.793453
thorax -25.0581 -0.858746 3.86776
lowerneck -18.4979 4.2659 -1.83936
upperneck -14.1461 5.88697 1.59095
head -1.6332 2.94401 1.04219
rclavicle 8.8658e-014 8.74653e-015
rhumerus -34.7157 8.53598 7.27809
rradius 21.6374
rwrist -32.2586
rhand -16.4998 8.13058
rfingers 7.12502
rthumb 9.71799 -21.6252
lclavicle 8.8658e-014 8.74653e-015
lhumerus -20.9109 2.8037 -3.81522
lradius 22.9912
lwrist -14.7647
lhand 6.14176 46.8342
lfingers 7.12502
lthumb 31.4584 74.1473
rfemur -112.434 -16.4861 26.6761
rtibia 88.6831
rfoot 42.9249 11.3675
rtoes 12.6935
lfemur -76.742 -13.9579 -21.7128
ltibia 80.5323
lfoot -27.7466 24.1315
ltoes 4.80335
170
root 20.6563 13.467 -12.8348 29.0615 -23.2892 3.35594
lowerback 36.6655 -2.01478 -1.8928
upperback -4.76565 -3.37456 0.804529
thorax -25.0776 -0.872739 3.8213
lowerneck -18.4965 4.35897 -1.64233
upperneck -14.9173 5.94926 1.22514
head -1.87714 2.95982 0.884231
rclavicle 6.67916e-014 -4.90998e-014
rhumerus -34.881 9.22818 7.1961
rradius 21.6884
rwrist -33.1334
rhand -16.0283 8.75656
rfingers 7.12502
rthumb 10.1728 -20.9775
lclavicle 6.67916e-014 -4.90998e-014
lhumerus -20.9251 2.33491 -3.85381
lradius 22.8057
lwrist -14.5352
lhand 6.05816 46.8557
lfingers 7.12502
lthumb 31.3787 74.1843
rfemur -112.748 -16.448 26.7251
rtibia 88.5934
rfoot 42.7071 12.3863
rtoes 10.0399
lfemur -77.1298 -14.0533 -21.6411
ltibia 80.4961
lfoot -27.4501 24.2144
ltoes 4.24191
171
root 20.6671 13.4765 -12.8425 29.2353 -23.1589 3.16125
lowerback 36.7301 -2.04498 -1.54413
upperback -4.77876 -3.22735 0.900569
thorax -25.153 -0.854652 3.66929
lowerneck -18.073 4.3771 -1.70953
upperneck -15.9543 5.96584 0.996726
head -2.29013 2.96574 0.800303
rclavicle 1.47101e-014 -2.22639e-014
rhumerus -35.0031 9.56969 7.36379
rradius 21.6468
rwrist -33.5132
rhand -15.699 9.23027
rfingers 7.12502
rthumb 10.4905 -20.488
lclavicle 1.47101e-014 -2.22639e-014
lhumerus -20.9507 0.988734 -3.62469
lradius 22.8212
lwrist -13.7501
lhand 6.31389 47.1576
lfingers 7.12502
lthumb 31.6224 74.4386
rfemur -112.753 -16.4777 27.0768
rtibia 88.4616
rfoot 42.5127 12.653
rtoes 9.20712
lfemur -77.3089 -14.1688 -21.3214
ltibia 80.4477
lfoot -27.3888 24.1668
ltoes 4.01605
172
root 20.6795 13.4877 -12.8538 29.0976 -23.1117 3.10697
lowerback 37.0938 -2.02239 -1.36985
upperback -4.78542 -3.09801 0.981412
thorax -25.3528 -0.814143 3.61539
lowerneck -17.4969 4.40138 -1.90782
upperneck -16.9565 6.0126 0.819021
head -2.72913 2.99664 0.752228
rclavicle 2.76311e-014 1.36167e-014
rhumerus -34.9107 8.96151 8.03249
rradius 21.5124
rwrist -32.4262
rhand -15.6723 8.92587
rfingers 7.12502
rthumb 10.5163 -20.7911
lclavicle 2.76311e-014 1.36167e-014
lhumerus -21.0606 0.0503647 -3.45538
lradius 22.8769
lwrist -13.5199
lhand 6.44134 47.2358
lfingers 7.12502
lthumb 31.7438 74.4928
rfemur -112.523 -16.5657 27.1847
rtibia 88.3364
rfoot 42.5868 13.2939
rtoes 8.08283
lfemur -77.1701 -14.3428 -21.1968
ltibia 80.3873
lfoot -27.351 24.2526
ltoes 4.24098
173
root 20.6902 13.4926 -12.8633 28.8429 -23.0982 3.20347
lowerback 37.4929 -2.05009 -1.33561
upperback -4.73158 -3.11586 0.999663
thorax -25.4659 -0.817752 3.64006
lowerneck -17.1257 4.54092 -1.90085
upperneck -17.8108 6.16195 0.482952
head -3.08139 3.07157 0.625686
rclavicle -7.85199e-014 -1.00386e-014
rhumerus -34.7181 8.44665 8.56781
rradius 21.2106
rwrist -31.1122
rhand -15.3156 9.66081
rfingers 7.12502
rthumb 10.8603 -20.0384
lclavicle -7.85199e-014 -1.00386e-014
lhumerus -21.2744 -0.354123 -3.52596
lradius 22.853
lwrist -13.6956
lhand 6.39518 46.9213
lfingers 7.12502
lthumb 31.6998 74.187
rfemur -112.285 -16.6773 27.0145
rtibia 88.2331
rfoot 42.7382 13.5457
rtoes 7.60405
lfemur -76.9313 -14.5635 -21.2332
ltibia 80.333
lfoot -27.455 24.1795
ltoes 5.2897
